<?xml version="1.0" standalone="no"?>
<!DOCTYPE svg PUBLIC "-//W3C//DTD SVG 20010904//EN"
 "http://www.w3.org/TR/2001/REC-SVG-20010904/DTD/svg10.dtd">
<svg version="1.0" xmlns="http://www.w3.org/2000/svg"
 width="860.000000pt" height="559.000000pt" viewBox="0 0 860.000000 559.000000"
 preserveAspectRatio="xMidYMid meet">

<g transform="translate(0.000000,559.000000) scale(0.100000,-0.100000)"
fill="#000000" stroke="none">
<path d="M3933 5154 c-762 -83 -1429 -405 -1901 -919 -484 -527 -670 -1212
-510 -1875 65 -270 212 -569 391 -797 50 -65 79 -89 35 -30 -95 127 -202 340
-262 518 -68 205 -87 320 -93 549 -4 175 -2 210 21 340 122 710 640 1321 1406
1658 604 266 1305 332 1980 186 541 -117 1021 -372 1385 -738 322 -323 514
-675 591 -1083 25 -133 30 -430 10 -574 -36 -257 -140 -548 -268 -745 -58 -90
-65 -106 -33 -69 54 62 161 234 225 360 98 194 162 395 196 617 23 145 23 410
0 562 -158 1061 -1177 1909 -2454 2040 -184 19 -545 19 -719 0z"/>
<path d="M4184 4479 c-64 -24 -126 -77 -161 -137 -22 -38 -29 -63 -33 -131
l-5 -85 -31 -8 c-19 -5 -34 -16 -37 -28 -3 -12 8 -64 25 -117 22 -71 37 -103
59 -122 20 -17 29 -35 29 -56 1 -47 44 -160 84 -213 97 -132 233 -159 363 -70
75 51 123 139 143 261 7 45 16 66 34 81 30 25 90 198 81 233 -3 14 -16 25 -33
29 -38 10 -42 19 -42 98 0 118 -57 201 -175 257 -53 26 -70 29 -155 28 -69 0
-109 -5 -146 -20z"/>
<path d="M3828 3756 c-97 -41 -225 -144 -202 -165 19 -17 252 -63 347 -68 l97
-6 0 25 c0 81 -66 199 -125 224 -44 18 -49 18 -117 -10z"/>
<path d="M4705 3760 c-54 -22 -115 -126 -118 -203 l-2 -42 90 1 c80 2 335 50
352 68 18 17 -98 112 -192 157 -61 29 -94 34 -130 19z"/>
<path d="M3309 3560 c-109 -56 -170 -160 -199 -337 -12 -74 8 -194 43 -255 35
-64 80 -79 235 -76 l132 3 0 31 c0 54 38 183 75 253 49 93 130 188 221 257
l77 59 -59 18 c-139 43 -310 77 -389 76 -68 0 -88 -4 -136 -29z"/>
<path d="M5150 3584 c-147 -27 -390 -88 -390 -98 0 -2 21 -18 48 -37 109 -78
196 -177 251 -286 34 -65 71 -196 71 -247 l0 -31 128 0 c169 1 166 0 207 36
91 80 102 308 23 476 -62 131 -206 211 -338 187z"/>
<path d="M3937 3486 c-46 -17 -91 -51 -184 -139 -126 -119 -175 -216 -189
-370 -17 -188 93 -322 274 -334 81 -6 199 26 327 87 63 30 85 46 93 67 15 41
44 337 40 417 l-3 69 -75 63 c-188 158 -208 168 -283 140z"/>
<path d="M4582 3463 c-22 -16 -55 -41 -74 -58 -18 -16 -58 -50 -88 -75 -30
-25 -58 -49 -62 -55 -22 -30 15 -467 42 -500 19 -23 108 -67 215 -105 73 -26
106 -32 175 -33 74 -1 92 2 143 27 107 52 166 170 153 306 -17 174 -78 279
-241 418 -125 106 -189 124 -263 75z"/>
<path d="M3042 3173 c-109 -171 -204 -627 -135 -650 32 -11 97 134 133 296 38
175 62 401 41 401 -5 0 -23 -21 -39 -47z"/>
<path d="M5560 3163 c1 -122 55 -404 100 -522 36 -92 60 -127 82 -119 68 27
-25 471 -135 646 -15 23 -32 42 -37 42 -6 0 -10 -21 -10 -47z"/>
<path d="M3100 2954 c0 -47 -32 -156 -89 -304 -54 -141 -56 -158 -20 -203 48
-62 101 -13 154 142 50 145 42 292 -19 366 l-25 30 -1 -31z"/>
<path d="M5528 2953 c-43 -50 -53 -85 -52 -193 0 -89 5 -116 28 -180 36 -98
84 -170 113 -170 12 0 31 11 42 25 34 44 34 74 1 155 -55 134 -92 244 -104
313 -11 64 -13 67 -28 50z"/>
<path d="M3320 2854 c-72 -31 -101 -74 -124 -183 -9 -41 -40 -123 -76 -198
-37 -78 -59 -136 -56 -148 7 -26 84 -114 136 -155 l40 -32 32 20 c39 24 84 82
162 207 79 126 91 169 89 339 0 123 -3 141 -19 153 -24 18 -140 16 -184 -3z"/>
<path d="M3546 2740 c4 -98 1 -153 -9 -200 -17 -75 -9 -100 43 -144 40 -33 46
-33 54 2 30 124 33 129 89 150 28 11 75 23 102 27 102 15 116 45 20 45 -144 0
-238 70 -291 218 -12 33 -13 22 -8 -98z"/>
<path d="M5087 2811 c-25 -72 -90 -149 -144 -173 -27 -12 -78 -22 -125 -25
-48 -4 -77 -10 -75 -16 4 -12 21 -18 131 -42 43 -9 86 -25 96 -35 10 -10 26
-50 36 -89 10 -39 21 -71 25 -71 3 0 27 23 53 50 30 32 45 57 42 68 -24 90
-28 135 -22 254 4 70 5 128 4 128 -2 0 -11 -22 -21 -49z"/>
<path d="M5144 2852 c-18 -11 -27 -190 -14 -277 15 -96 26 -123 105 -250 68
-107 156 -201 178 -189 61 36 177 163 177 194 0 6 -24 62 -54 123 -60 123 -86
194 -86 233 0 55 -65 141 -123 163 -32 12 -166 15 -183 3z"/>
<path d="M4039 2662 c-113 -30 -148 -67 -89 -97 41 -21 81 -19 174 10 122 37
179 80 130 99 -30 12 -149 5 -215 -12z"/>
<path d="M4390 2661 c-29 -20 26 -59 129 -92 108 -35 160 -34 195 1 l21 21
-28 23 c-16 13 -45 29 -65 35 -49 17 -233 25 -252 12z"/>
<path d="M3708 2518 c-9 -7 -26 -44 -38 -83 -27 -90 -31 -306 -6 -400 24 -90
111 -250 182 -337 65 -77 173 -182 180 -175 5 5 -53 171 -74 212 -8 17 -32 55
-52 85 -87 129 -109 194 -120 360 -4 63 -14 141 -21 172 -12 55 -12 59 9 87
27 37 28 67 3 81 -26 13 -44 13 -63 -2z"/>
<path d="M3926 2509 c-106 -12 -157 -62 -139 -136 16 -67 43 -78 217 -81 162
-4 223 5 257 39 42 42 10 133 -61 170 -38 21 -142 24 -274 8z"/>
<path d="M4878 2509 c-24 -14 -23 -44 4 -80 20 -27 21 -33 10 -82 -7 -28 -17
-108 -22 -177 -11 -153 -30 -211 -111 -342 -56 -89 -138 -272 -139 -306 0 -23
96 65 175 159 81 97 164 247 191 347 24 91 21 309 -6 397 -12 39 -27 76 -32
83 -12 14 -46 15 -70 1z"/>
<path d="M4445 2492 c-48 -31 -67 -58 -72 -105 -5 -39 -2 -46 26 -69 38 -32
110 -42 273 -37 91 3 120 8 148 24 40 24 55 71 38 124 -17 56 -74 74 -243 78
-125 4 -143 2 -170 -15z"/>
<path d="M2873 2449 c-42 -26 -65 -84 -115 -286 l-41 -168 -5 -235 -4 -236
-33 0 c-18 0 -40 -6 -49 -13 -25 -21 -316 -609 -316 -639 0 -60 66 -100 113
-69 14 9 75 119 157 283 l135 269 5 -82 5 -82 53 35 c29 20 58 48 63 62 6 15
7 91 3 191 -6 164 -6 167 25 285 37 141 38 176 10 252 -19 51 -21 71 -16 183
3 82 12 150 25 196 12 38 20 71 19 72 -2 1 -17 -7 -34 -18z"/>
<path d="M2930 2459 c0 -3 -9 -50 -21 -105 -27 -133 -27 -245 1 -330 27 -79
25 -108 -19 -314 -30 -139 -30 -148 -20 -250 7 -58 12 -130 13 -160 1 -52 0
-55 -29 -63 -67 -20 -96 -38 -121 -77 -19 -28 -33 -40 -44 -37 -10 2 -25 0
-34 -5 -18 -10 -22 -53 -6 -63 6 -3 10 -26 10 -49 0 -27 7 -52 18 -67 11 -13
22 -37 26 -53 10 -41 64 -113 102 -136 17 -11 44 -20 60 -20 57 1 174 71 174
106 0 6 11 19 25 28 35 23 32 52 -7 76 -18 11 -37 21 -43 23 -5 2 5 25 23 52
43 65 44 118 3 163 -17 18 -41 36 -55 42 -17 6 -26 17 -26 31 0 29 79 226 156
389 66 140 108 278 120 393 6 62 6 64 -26 90 -17 15 -38 27 -46 27 -39 0 -156
147 -199 250 -17 42 -35 71 -35 59z m10 -1439 c0 -5 -4 -10 -10 -10 -5 0 -10
5 -10 10 0 6 5 10 10 10 6 0 10 -4 10 -10z m-10 -115 c13 -14 32 -25 42 -25
11 0 16 -4 13 -10 -15 -25 -62 0 -89 48 -12 21 9 13 34 -13z"/>
<path d="M5673 2372 c-58 -122 -120 -196 -189 -229 -73 -34 -81 -52 -65 -153
18 -118 57 -242 107 -343 60 -119 164 -375 164 -404 0 -15 -6 -23 -17 -23 -9
0 -33 -18 -55 -40 -50 -54 -53 -106 -8 -168 17 -23 30 -44 30 -46 0 -2 -16
-13 -35 -25 -38 -22 -46 -53 -20 -80 9 -9 26 -31 38 -50 28 -44 108 -85 164
-86 33 0 48 6 74 30 37 35 89 112 89 133 0 8 9 27 21 43 14 20 20 41 18 69 -2
26 3 45 15 59 32 35 -2 83 -44 61 -15 -8 -22 -3 -44 30 -27 42 -60 63 -114 75
-40 8 -52 34 -40 89 4 23 13 87 18 143 9 97 8 110 -21 245 -44 203 -45 230
-19 317 20 64 22 87 17 185 -4 61 -14 143 -24 183 l-18 72 -42 -87z m71 -1477
c-9 -14 -25 -30 -35 -35 -19 -11 -49 -3 -49 12 0 6 7 8 15 4 9 -3 29 7 48 23
38 34 45 33 21 -4z"/>
<path d="M5745 2443 c24 -63 38 -144 42 -255 5 -115 4 -132 -16 -177 -28 -67
-27 -110 10 -254 31 -120 31 -125 25 -292 -6 -159 -5 -172 14 -203 11 -17 25
-32 31 -32 6 0 25 -12 43 -27 l31 -26 5 94 5 94 137 -272 c133 -264 159 -303
201 -303 25 0 77 54 77 80 0 11 -69 159 -154 328 -163 325 -174 340 -232 326
l-24 -6 0 208 c0 143 -5 229 -15 274 -7 36 -23 108 -35 160 -35 161 -60 230
-97 267 -37 36 -59 43 -48 16z"/>
<path d="M4035 2250 c-147 -8 -195 -34 -195 -105 0 -72 43 -90 215 -90 172 1
215 18 215 89 0 34 -55 94 -95 104 -16 4 -79 5 -140 2z"/>
<path d="M4451 2233 c-38 -19 -71 -66 -71 -101 0 -66 47 -85 215 -86 174 -1
215 17 215 97 0 27 -7 41 -30 60 -32 28 -61 34 -200 42 -78 5 -101 3 -129 -12z"/>
<path d="M4035 1991 c-91 -11 -125 -37 -125 -94 0 -43 29 -67 97 -77 86 -14
247 1 273 25 31 28 25 70 -14 112 -32 35 -37 37 -102 39 -38 1 -96 -1 -129 -5z"/>
<path d="M4407 1972 c-41 -28 -59 -58 -55 -95 5 -52 48 -67 191 -67 137 0 182
13 193 56 20 78 -36 113 -193 120 -95 5 -111 3 -136 -14z"/>
<path d="M3993 1763 c-45 -18 55 -198 135 -245 32 -19 163 -41 174 -30 5 5 5
70 1 145 l-6 137 -146 -1 c-80 0 -152 -3 -158 -6z"/>
<path d="M4350 1708 c0 -35 -3 -100 -7 -145 l-6 -83 35 0 c88 0 141 19 190 66
50 50 112 160 106 190 -4 22 -64 31 -220 33 l-98 1 0 -62z"/>
<path d="M2167 1538 c-35 -36 -157 -282 -157 -318 0 -46 42 -84 83 -76 17 4
37 12 44 19 23 24 153 296 153 322 0 33 -42 75 -75 75 -14 0 -36 -10 -48 -22z"/>
<path d="M2413 1541 c-10 -11 -74 -132 -142 -269 -119 -239 -124 -251 -112
-280 16 -38 62 -59 99 -46 23 7 48 51 154 259 70 138 127 263 128 278 0 62
-87 101 -127 58z"/>
<path d="M6140 1540 c-38 -38 -27 -75 96 -321 63 -127 126 -242 139 -255 13
-13 36 -24 50 -24 33 0 75 42 75 74 0 33 -234 505 -262 529 -27 23 -73 22 -98
-3z"/>
<path d="M6396 1538 c-13 -13 -27 -32 -30 -44 -9 -30 134 -317 168 -340 44
-28 99 -2 113 54 9 38 -135 323 -172 340 -37 17 -51 15 -79 -10z"/>
<path d="M3308 1163 c-9 -10 -85 -156 -169 -325 l-153 -307 17 -35 c18 -40 54
-54 96 -40 22 8 52 61 184 323 168 333 172 344 125 384 -11 9 -35 17 -53 17
-18 0 -39 -8 -47 -17z"/>
<path d="M5242 1157 c-12 -13 -22 -35 -22 -49 0 -31 285 -604 316 -635 29 -29
63 -29 98 -2 18 14 26 30 26 51 0 35 -290 624 -318 646 -26 20 -76 15 -100
-11z"/>
<path d="M5125 1032 c-34 -7 -55 -33 -55 -69 0 -41 240 -527 265 -537 56 -21
115 12 115 65 0 18 -48 125 -125 278 -107 213 -129 250 -152 258 -16 5 -37 7
-48 5z"/>
<path d="M3459 1014 c-7 -9 -69 -127 -137 -262 -130 -261 -135 -277 -90 -314
26 -23 80 -23 101 0 26 29 257 500 257 525 0 37 -35 67 -79 67 -23 0 -44 -6
-52 -16z"/>
<path d="M3608 813 c-9 -10 -48 -83 -88 -162 -56 -113 -70 -149 -65 -171 11
-49 70 -74 116 -49 11 6 53 77 95 162 57 115 74 157 69 177 -10 41 -35 60 -75
60 -23 0 -43 -7 -52 -17z"/>
<path d="M4940 808 c-11 -12 -20 -33 -20 -47 0 -36 135 -306 162 -325 31 -22
60 -20 92 5 18 14 26 30 26 50 0 34 -132 306 -158 327 -26 20 -79 15 -102 -10z"/>
</g>
</svg>
